<?xml version="1.0" encoding="UTF-8"?>
<svg id="Layer_1" data-name="Layer 1" xmlns="http://www.w3.org/2000/svg" viewBox="0 0 47 33">
  <defs>
    <style>
      .cls-1 {
        fill: #1f72cd;
        stroke: #d9d9d9;
        stroke-width: 2.65px;
      }

      .cls-2 {
        fill: #fff;
        fill-rule: evenodd;
        stroke-width: 0px;
      }
    </style>
  </defs>
  <rect class="cls-1" x="1.32" y="1.32" width="44.35" height="30.35" rx="14.55" ry="14.55"/>
  <path class="cls-2" d="m8.43,11.69l-4.4,9.96h5.26l.65-1.59h1.49l.65,1.59h5.79v-1.21l.52,1.21h3l.52-1.24v1.24h12.05l1.47-1.55,1.37,1.55h6.19s-4.41-4.95-4.41-4.95l4.41-5.01h-6.09l-1.43,1.52-1.33-1.52h-13.11l-1.13,2.57-1.15-2.57h-5.25v1.17l-.58-1.17h-4.49Zm18,1.42h6.92l2.12,2.34,2.18-2.34h2.12l-3.22,3.59,3.22,3.55h-2.21l-2.12-2.37-2.2,2.37h-6.81v-7.15Zm1.71,2.79v-1.31h0s4.32,0,4.32,0l1.88,2.09-1.97,2.1h-4.23v-1.42h3.78v-1.45h-3.78Zm-18.69-2.79h2.57l2.92,6.76v-6.76h2.81l2.25,4.84,2.08-4.84h2.8v7.15h-1.7v-5.6s-2.5,5.6-2.5,5.6h-1.52l-2.5-5.6v5.6h-3.5l-.66-1.6h-3.59l-.66,1.6h-1.88l3.08-7.15Zm.07,4.07l1.18-2.86,1.18,2.86h-2.36Z"/>
</svg>