<?xml version="1.0" encoding="UTF-8"?>
<svg id="Layer_1" data-name="Layer 1" xmlns="http://www.w3.org/2000/svg" viewBox="0 0 48 32.68">
  <defs>
    <style>
      .cls-1 {
        fill: #ff5e00;
      }

      .cls-1, .cls-2, .cls-3 {
        fill-rule: evenodd;
        stroke-width: 0px;
      }

      .cls-2 {
        fill: #ed0006;
      }

      .cls-4 {
        fill: #fff;
        stroke: #d9d9d9;
        stroke-width: 2.65px;
      }

      .cls-3 {
        fill: #f9a000;
      }
    </style>
  </defs>
  <rect class="cls-4" x="1.32" y="1.32" width="45.35" height="30.04" rx="14.55" ry="14.55"/>
  <path class="cls-2" d="m24.34,23.36c-1.63,1.4-3.75,2.25-6.07,2.25-5.17,0-9.36-4.21-9.36-9.4s4.19-9.4,9.36-9.4c2.32,0,4.44.85,6.07,2.25,1.63-1.4,3.75-2.25,6.07-2.25,5.17,0,9.36,4.21,9.36,9.4s-4.19,9.4-9.36,9.4c-2.32,0-4.44-.85-6.07-2.25Z"/>
  <path class="cls-3" d="m24.34,23.36c2.01-1.72,3.29-4.29,3.29-7.15s-1.28-5.43-3.29-7.15c1.63-1.4,3.75-2.25,6.07-2.25,5.17,0,9.36,4.21,9.36,9.4s-4.19,9.4-9.36,9.4c-2.32,0-4.44-.85-6.07-2.25Z"/>
  <path class="cls-1" d="m24.34,23.36c2.01-1.72,3.29-4.29,3.29-7.15s-1.28-5.43-3.29-7.15c-2.01,1.72-3.29,4.29-3.29,7.15s1.28,5.43,3.29,7.15Z"/>
</svg>