<?xml version="1.0" encoding="UTF-8"?>
<svg id="Layer_1" data-name="Layer 1" xmlns="http://www.w3.org/2000/svg" viewBox="0 0 48 32">
  <defs>
    <style>
      .cls-1 {
        fill: #172b85;
        fill-rule: evenodd;
        stroke-width: 0px;
      }

      .cls-2 {
        fill: #fff;
        stroke: #d9d9d9;
        stroke-width: 2.65px;
      }
    </style>
  </defs>
  <rect class="cls-2" x="1.32" y="1.32" width="45.35" height="29.35" rx="14.55" ry="14.55"/>
  <path class="cls-1" d="m14.57,21.68h-2.91l-2.18-8.09c-.1-.37-.32-.7-.65-.86-.81-.39-1.7-.7-2.67-.86v-.31h4.68c.65,0,1.13.47,1.21,1.01l1.13,5.83,2.91-6.84h2.83l-4.36,10.11Zm5.98,0h-2.75l2.26-10.11h2.75l-2.26,10.11Zm5.81-7.31c.08-.54.57-.86,1.13-.86.89-.08,1.86.08,2.67.47l.48-2.18c-.81-.31-1.7-.47-2.5-.47-2.67,0-4.6,1.4-4.6,3.34,0,1.48,1.37,2.26,2.34,2.72,1.05.47,1.45.78,1.37,1.24,0,.7-.81,1.01-1.61,1.01-.97,0-1.94-.23-2.83-.62l-.48,2.18c.97.39,2.02.54,2.99.54,2.99.08,4.85-1.32,4.85-3.42,0-2.64-3.8-2.8-3.8-3.97h0Zm13.41,7.31l-2.18-10.11h-2.34c-.48,0-.97.31-1.13.78l-4.04,9.33h2.83l.56-1.48h3.47l.32,1.48h2.5Zm-4.12-7.39l.81,3.81h-2.26l1.45-3.81Z"/>
</svg>